<svg id="Layer_1" data-name="Layer 1" xmlns="http://www.w3.org/2000/svg" viewBox="0 0 512 512"><title>creativemarket-glyph</title><path d="M136.8,349.19l92.43-201.7C122.58,190.58,93.1,258.25,136.8,349.19Z" fill="#434040"/><path d="M330.45,128.56c-69.79,74.59-129.84,154.68-172.38,244.67a74.6,74.6,0,0,0,15.16,13.61c37.84,25.8,103.89,25.86,146.21-7.78,46.69-39.36,61.48-126.87,64.13-232.71q.29-12.75.43-25.8C382.94,98.28,348.86,104.15,330.45,128.56Z" fill="#434040"/><path d="M490.67,5A16.31,16.31,0,0,1,507,21.33V490.67A16.31,16.31,0,0,1,490.67,507H21.33A16.31,16.31,0,0,1,5,490.67V21.33A16.31,16.31,0,0,1,21.33,5H490.67m0-5H21.33A21.33,21.33,0,0,0,0,21.33V490.67A21.33,21.33,0,0,0,21.33,512H490.67A21.33,21.33,0,0,0,512,490.67V21.33A21.33,21.33,0,0,0,490.67,0Z" fill="#434040"/></svg>